<?xml version="1.0" encoding="UTF-8" standalone="no"?>
<svg
   xmlns:dc="http://purl.org/dc/elements/1.1/"
   xmlns:cc="http://creativecommons.org/ns#"
   xmlns:rdf="http://www.w3.org/1999/02/22-rdf-syntax-ns#"
   xmlns:svg="http://www.w3.org/2000/svg"
   xmlns="http://www.w3.org/2000/svg"
   id="svg8"
   version="1.1"
   viewBox="0 0 45.879002 33.753002"
   height="33.753002mm"
   width="45.879002mm">
  <defs
     id="defs2" />
  <metadata
     id="metadata5">
    <rdf:RDF>
      <cc:Work
         rdf:about="">
        <dc:format>image/svg+xml</dc:format>
        <dc:type
           rdf:resource="http://purl.org/dc/dcmitype/StillImage" />
        <dc:title></dc:title>
      </cc:Work>
    </rdf:RDF>
  </metadata>
  <g
     transform="translate(-12.059996,-18.124001)"
     id="layer1">
    <g
       id="layer2" />
    <g
       style="fill:#000000"
       transform="matrix(0.26458478,0,0,0.26458322,-552.08238,-174.61902)"
       id="g79">
      <path
         style="fill:#000000"
         d="m 2234.99,799.35787 h -95.72 c -3.91,0 -7.09,-3.17 -7.09,-7.09 v 0 c 0,-3.91 3.17,-7.09 7.09,-7.09 h 95.72 c 3.91,0 7.09,3.17 7.09,7.09 v 0 c -0.01,3.91 -3.18,7.09 -7.09,7.09 z"
         id="path41" />
      <path
         style="fill:#000000"
         d="m 2234.16,771.00787 h -52.29 c -3.91,0 -7.09,-3.17 -7.09,-7.09 v 0 c 0,-3.91 3.17,-7.09 7.09,-7.09 h 52.29 c 3.91,0 7.09,3.17 7.09,7.09 v 0 c 0,3.92 -3.17,7.09 -7.09,7.09 z"
         id="path43" />
      <path
         style="fill:#000000"
         d="m 2238.35,742.65787 h -76.43 c -3.91,0 -7.09,-3.17 -7.09,-7.09 v 0 c 0,-3.91 3.17,-7.09 7.09,-7.09 h 76.43 c 3.91,0 7.09,3.17 7.09,7.09 v 0 c 0,3.92 -3.18,7.09 -7.09,7.09 z"
         id="path45" />
      <path
         style="fill:#000000"
         d="m 2243.2,856.04787 h -74.28 c -3.91,0 -7.09,-3.17 -7.09,-7.09 v 0 c 0,-3.91 3.17,-7.09 7.09,-7.09 h 74.28 c 3.91,0 7.09,3.17 7.09,7.09 v 0 c 0,3.92 -3.17,7.09 -7.09,7.09 z"
         id="path47" />
      <path
         style="fill:#000000"
         d="m 2236.07,827.69787 h -59.05 c -3.91,0 -7.09,-3.17 -7.09,-7.09 v 0 c 0,-3.91 3.17,-7.09 7.09,-7.09 h 59.05 c 3.91,0 7.09,3.17 7.09,7.09 v 0 c -0.01,3.92 -3.18,7.09 -7.09,7.09 z"
         id="path49" />
      <path
         style="fill:#000000"
         d="m 2241.8007,728.48777 c -15.2017,0 -29.1513,5.33115 -40.1074,14.21289 3.5521,0.38083 6.3262,3.38548 6.3262,7.04688 0,3.91 -3.1699,7.08984 -7.0899,7.08984 h -12.1406 c -2.9264,4.37097 -5.3364,9.11649 -7.1211,14.16016 h 48.5918 c 3.91,0 7.0898,3.16984 7.0898,7.08984 0,3.92 -3.1798,7.08984 -7.0898,7.08984 h -51.8379 c -0.2579,2.32917 -0.4023,4.69203 -0.4023,7.08985 0,2.39339 0.1353,4.75526 0.3925,7.08008 h 41.5977 c 3.91,0 7.0898,3.16984 7.0898,7.08984 0,3.92 -3.1698,7.0918 -7.0898,7.0918 h -38.3516 c 1.7837,5.03964 4.1801,9.78968 7.1035,14.1582 h 13.9981 c 3.91,0 7.0898,3.1718 7.0898,7.0918 -0.01,3.92 -3.1798,7.08984 -7.0898,7.08984 h -1.0352 c 10.9535,8.86159 24.8923,14.17969 40.0762,14.17969 35.23,0 63.7793,-28.56125 63.7793,-63.78125 0,-35.22 -28.5593,-63.7793 -63.7793,-63.7793 z"
         id="path51" />
    </g>
  </g>
  <style
     type="text/css"
     id="style39">
	.st0{fill:#FFFFFF;}
</style>
</svg>
