<?xml version="1.0" standalone="no"?>
<!DOCTYPE svg PUBLIC "-//W3C//DTD SVG 20010904//EN"
 "http://www.w3.org/TR/2001/REC-SVG-20010904/DTD/svg10.dtd">
<svg version="1.0" xmlns="http://www.w3.org/2000/svg"
 width="2191.000000pt" height="516.000000pt" viewBox="0 0 2191.000000 516.000000"
 preserveAspectRatio="xMidYMid meet">

<g transform="translate(0.000000,516.000000) scale(0.100000,-0.100000)"
fill="#000000" stroke="none">
<path d="M851 5135 c-182 -33 -301 -105 -348 -210 -17 -37 -18 -105 -23 -1045
l-5 -1005 -28 -56 c-56 -116 -177 -194 -348 -228 -68 -14 -83 -19 -55 -20 93
-3 240 -60 322 -126 22 -18 56 -62 75 -97 l34 -63 5 -1010 5 -1010 29 -53 c65
-116 207 -181 441 -202 122 -11 479 -13 538 -4 l37 7 0 83 0 84 -127 0 c-130
1 -261 18 -304 40 -13 7 -39 26 -57 43 -63 61 -62 38 -62 1012 0 913 -2 960
-42 1039 -61 119 -206 215 -378 250 l-65 13 78 17 c103 23 224 85 287 146 31
30 63 76 83 117 l32 68 5 940 5 940 27 47 c52 87 134 115 366 125 l152 6 0 84
0 83 -302 -1 c-207 -1 -327 -5 -377 -14z"/>
<path d="M20370 5067 l0 -84 153 -6 c231 -10 322 -42 369 -130 l23 -42 5 -935
c4 -632 9 -945 17 -965 55 -154 197 -268 390 -311 l78 -17 -65 -13 c-185 -37
-337 -146 -392 -282 l-23 -57 -5 -935 c-5 -1006 -3 -965 -58 -1023 -57 -61
-121 -77 -332 -86 l-155 -6 -3 -81 -3 -81 38 -7 c59 -9 415 -7 538 4 236 21
376 85 441 202 l29 53 5 1010 5 1010 28 53 c15 29 45 70 67 92 69 69 234 138
336 141 28 1 13 6 -55 20 -170 33 -288 110 -346 226 l-30 58 -5 1005 c-5 999
-5 1005 -26 1050 -42 89 -133 151 -281 192 -71 20 -109 22 -410 26 l-333 4 0
-85z"/>
<path d="M2710 4075 c-152 -33 -285 -108 -391 -222 -107 -116 -172 -237 -217
-403 -23 -84 -26 -115 -26 -270 -1 -160 1 -183 26 -270 36 -131 62 -196 104
-266 34 -57 35 -60 19 -84 -186 -291 -208 -727 -50 -1040 88 -176 245 -323
413 -387 142 -53 142 -53 1128 -53 l914 0 0 330 0 330 -842 0 c-796 0 -845 1
-883 19 -86 39 -128 118 -129 241 0 75 3 92 29 144 19 37 44 70 69 88 l39 28
859 0 858 0 -2 328 -3 327 -857 5 c-850 5 -857 5 -885 26 -50 37 -91 100 -103
160 -30 145 43 302 157 333 25 7 313 11 866 11 l827 0 0 320 0 320 -927 -1
c-751 0 -940 -3 -993 -14z"/>
<path d="M4930 3770 l0 -320 829 0 c592 0 838 -3 862 -11 57 -19 96 -56 128
-120 26 -52 31 -74 31 -134 0 -40 -5 -87 -12 -106 -20 -60 -65 -116 -111 -138
-42 -20 -57 -21 -489 -21 -512 0 -613 -7 -748 -53 -118 -41 -190 -87 -280
-184 -81 -86 -146 -208 -182 -338 -22 -78 -23 -97 -26 -683 l-3 -602 328 2
328 3 5 445 c5 432 6 447 27 500 45 110 136 197 243 232 23 7 193 14 495 18
391 5 469 9 519 24 159 45 248 99 357 214 108 114 173 235 213 394 122 489
-91 997 -480 1144 -144 54 -143 54 -1125 54 l-909 0 0 -320z"/>
<path d="M7737 4083 c-4 -3 -7 -683 -7 -1510 l0 -1503 340 0 340 0 -2 1508 -3
1507 -331 3 c-182 1 -333 -1 -337 -5z"/>
<path d="M8582 3763 l3 -318 338 -3 337 -2 0 -1185 0 -1185 333 2 332 3 3
1182 2 1183 338 2 337 3 3 318 2 317 -1015 0 -1015 0 2 -317z"/>
<path d="M11495 4073 c-144 -20 -284 -86 -389 -184 -134 -125 -213 -259 -264
-448 -23 -86 -26 -114 -26 -271 1 -158 3 -185 28 -275 15 -57 50 -147 81 -209
l54 -109 -18 -26 c-122 -173 -179 -483 -136 -737 39 -223 122 -383 273 -525
90 -85 178 -134 307 -171 l80 -23 920 0 920 0 0 324 0 325 -831 0 -831 1 -48
30 c-33 21 -57 47 -79 85 -28 50 -31 62 -31 145 1 78 4 97 27 141 15 28 43 65
63 82 l36 32 849 0 850 0 0 325 0 325 -812 0 c-557 0 -826 4 -853 11 -58 16
-101 53 -132 112 -23 44 -27 65 -28 138 0 76 3 92 30 144 20 40 45 69 73 90
l44 30 839 3 839 2 0 320 0 320 -902 -1 c-497 -1 -916 -4 -933 -6z"/>
<path d="M14530 4069 c-207 -24 -389 -115 -547 -275 -276 -281 -433 -730 -433
-1239 0 -468 127 -857 375 -1149 117 -137 294 -250 470 -298 79 -22 89 -23
898 -26 l817 -3 0 325 0 325 -718 3 -717 3 -67 33 c-176 87 -305 340 -338 667
-47 449 90 850 328 967 l67 33 722 3 723 3 0 313 0 313 -392 6 c-506 9 -1092
7 -1188 -4z"/>
<path d="M16380 2575 l0 -1495 330 0 330 0 0 590 0 590 590 0 590 0 2 -587 3
-588 328 -3 327 -2 0 1495 0 1495 -330 0 -330 0 0 -580 0 -580 -590 0 -590 0
0 580 0 580 -330 0 -330 0 0 -1495z"/>
<path d="M19672 1835 c-70 -20 -98 -35 -154 -85 -30 -26 -59 -66 -80 -108 -30
-60 -33 -75 -33 -157 0 -82 3 -97 32 -156 100 -203 344 -268 530 -143 188 128
212 392 51 554 -88 88 -230 128 -346 95z"/>
</g>
</svg>
